<?xml version="1.0" encoding="utf-8"?>
<!-- Generator: Adobe Illustrator 16.0.0, SVG Export Plug-In . SVG Version: 6.00 Build 0)  -->
<!DOCTYPE svg PUBLIC "-//W3C//DTD SVG 1.1//EN" "http://www.w3.org/Graphics/SVG/1.1/DTD/svg11.dtd">
<svg version="1.1" id="Layer_1" xmlns="http://www.w3.org/2000/svg" xmlns:xlink="http://www.w3.org/1999/xlink" x="0px" y="0px"
	 width="259.333px" height="258.333px" viewBox="0 0 259.333 258.333" enable-background="new 0 0 259.333 258.333"
	 xml:space="preserve">
<g>
	<circle fill="#5B6A78" cx="129.667" cy="129.168" r="125"/>
	<g>
		<g>
			<path fill="#5B6A78" d="M77.776,207.2c-2.2,0-4-1.8-4-4v-139c0-2.2,1.8-4,4-4h103.917c2.2,0,4,1.8,4,4v139c0,2.2-1.8,4-4,4
				H77.776z"/>
			<path fill="none" stroke="#FFFFFF" stroke-width="7" stroke-miterlimit="10" d="M77.776,207.2c-2.2,0-4-1.8-4-4v-139
				c0-2.2,1.8-4,4-4h103.917c2.2,0,4,1.8,4,4v139c0,2.2-1.8,4-4,4H77.776z"/>
		</g>
		<rect x="76.45" y="198.307" fill="#FFFFFF" width="109.243" height="9.25"/>
		<circle fill="#5B6A78" cx="127.071" cy="204.432" r="4"/>
	</g>
	<g>
		<rect x="96.525" y="133.7" fill="#FFFFFF" width="4" height="4"/>
		<rect x="106.225" y="133.7" fill="#FFFFFF" width="56" height="4"/>
	</g>
	<g>
		<rect x="96.525" y="148.7" fill="#FFFFFF" width="4" height="4"/>
		<rect x="106.225" y="148.7" fill="#FFFFFF" width="56" height="4"/>
	</g>
	<g>
		<rect x="96.525" y="163.7" fill="#FFFFFF" width="4" height="4"/>
		<rect x="106.225" y="163.7" fill="#FFFFFF" width="56" height="4"/>
	</g>
	<g>
		<rect x="96.525" y="178.7" fill="#FFFFFF" width="4" height="4"/>
		<rect x="106.225" y="178.7" fill="#FFFFFF" width="56" height="4"/>
	</g>
	<g>
		<path fill="#FFFFFF" d="M128.721,87.447c0.437-0.003,0.78-0.346,0.766-0.773c0-0.427-0.346-0.769-0.766-0.766
			c-0.439,0.004-0.781,0.346-0.769,0.771C127.952,87.105,128.295,87.45,128.721,87.447z"/>
		<path fill="#FFFFFF" d="M133.868,87.269c-0.361-0.21-0.838-0.085-1.045,0.284c-0.215,0.372-0.086,0.839,0.279,1.053
			c0.367,0.211,0.84,0.083,1.051-0.286C134.362,87.949,134.235,87.484,133.868,87.269z"/>
		<path fill="#FFFFFF" d="M136.595,90.746c-0.367,0.216-0.5,0.684-0.279,1.051c0.219,0.367,0.688,0.491,1.045,0.279
			c0.373-0.215,0.488-0.685,0.293-1.052C137.435,90.656,136.97,90.531,136.595,90.746z"/>
		<path fill="#FFFFFF" d="M138.274,96.937c0.428-0.003,0.771-0.349,0.77-0.771c-0.004-0.426-0.348-0.77-0.771-0.767
			c-0.424,0-0.762,0.346-0.762,0.769C137.511,96.598,137.849,96.937,138.274,96.937z"/>
		<path fill="#FFFFFF" d="M136.632,101.602c0.373,0.211,0.83,0.082,1.051-0.287c0.219-0.367,0.084-0.837-0.285-1.051
			c-0.375-0.208-0.836-0.082-1.059,0.286C136.144,100.918,136.263,101.391,136.632,101.602z"/>
		<path fill="#FFFFFF" d="M133.161,103.767c-0.373,0.212-0.498,0.684-0.293,1.05c0.223,0.366,0.684,0.491,1.062,0.278
			c0.357-0.212,0.486-0.687,0.277-1.05C133.995,103.675,133.522,103.55,133.161,103.767z"/>
		<path fill="#FFFFFF" d="M128.783,104.955c-0.425,0-0.765,0.342-0.765,0.77c0.002,0.426,0.344,0.768,0.771,0.768
			c0.421-0.002,0.759-0.345,0.759-0.772C129.548,105.297,129.209,104.951,128.783,104.955z"/>
		<path fill="#FFFFFF" d="M124.399,103.798c-0.365-0.21-0.836-0.084-1.049,0.286c-0.211,0.366-0.082,0.837,0.293,1.047
			c0.363,0.209,0.827,0.079,1.044-0.287C124.899,104.475,124.763,104.008,124.399,103.798z"/>
		<path fill="#FFFFFF" d="M119.229,95.463c-0.423,0.003-0.762,0.347-0.762,0.772s0.339,0.768,0.766,0.769
			c0.428-0.003,0.77-0.35,0.768-0.773C120,95.804,119.653,95.463,119.229,95.463z"/>
		<path fill="#FFFFFF" d="M124.373,87.353c-0.375-0.212-0.843-0.084-1.058,0.284c-0.212,0.368-0.079,0.84,0.277,1.051
			c0.39,0.21,0.846,0.085,1.061-0.285C124.861,88.033,124.737,87.564,124.373,87.353z"/>
		<path fill="#FFFFFF" d="M131.089,98.548c-0.121,0.07-9.841,3.932-9.841,3.932c-0.391,0.226-0.925,0.09-1.147-0.321
			c-0.23-0.404-0.09-0.921,0.32-1.151c0,0,8.281-6.365,8.398-6.434c1.108-0.626,2.506-0.242,3.125,0.854
			C132.575,96.528,132.185,97.92,131.089,98.548z"/>
		<path fill="#FFFFFF" d="M131.208,94.625c-0.098-0.055-7.446-2.982-7.446-2.982c-0.314-0.175-0.705-0.07-0.875,0.242
			c-0.175,0.307-0.077,0.7,0.241,0.875c0,0,6.277,4.823,6.375,4.879c0.826,0.475,1.885,0.184,2.355-0.65
			C132.335,96.155,132.042,95.097,131.208,94.625z"/>
		<path fill="#FFFFFF" d="M120.891,90.742c-0.373-0.211-0.838-0.082-1.057,0.286c-0.195,0.368-0.075,0.837,0.293,1.051
			c0.371,0.209,0.827,0.085,1.049-0.286C121.395,91.424,121.25,90.956,120.891,90.742z"/>
		<g>
			<path fill="#FFFFFF" d="M136.017,82.522v-0.01c-2.172-1.152-4.637-1.811-7.262-1.811c-2.624,0-5.111,0.661-7.279,1.819
				c0,0.002,0,0.007,0,0.01c-0.032,0.017-0.064,0.027-0.095,0.044c-0.569,0.306-1.109,0.658-1.631,1.03
				c-0.084,0.057-0.162,0.124-0.257,0.186c-0.439,0.335-0.881,0.694-1.272,1.075c-0.073,0.06-0.144,0.118-0.195,0.179
				c-0.472,0.445-0.909,0.916-1.315,1.416c-0.028,0.033-0.052,0.078-0.086,0.117c-0.356,0.445-0.68,0.915-0.988,1.398
				c-0.075,0.127-0.149,0.256-0.229,0.387c-0.275,0.467-0.527,0.946-0.748,1.443c-0.051,0.081-0.085,0.158-0.121,0.239
				c-0.247,0.572-0.465,1.163-0.635,1.767c-0.043,0.146-0.077,0.295-0.123,0.443c-0.115,0.476-0.218,0.96-0.293,1.451
				c-0.033,0.179-0.064,0.359-0.086,0.54c-0.08,0.635-0.135,1.277-0.135,1.935c0,0.003-0.001,0.006-0.001,0.009
				c0,0.664,0.056,1.317,0.138,1.958c0.031,0.178,0.051,0.352,0.084,0.526c0.078,0.507,0.193,1.003,0.313,1.495
				c0.026,0.136,0.075,0.275,0.104,0.409c0.182,0.61,0.395,1.203,0.656,1.782c0.027,0.09,0.075,0.174,0.116,0.264
				c0.223,0.493,0.47,0.973,0.763,1.437c0.066,0.126,0.144,0.252,0.22,0.377c0.315,0.513,0.672,1.016,1.05,1.486
				c0.012,0.009,0.02,0.021,0.027,0.031c0.409,0.501,0.852,0.971,1.318,1.417c0.067,0.072,0.154,0.14,0.23,0.209
				c0.411,0.377,0.842,0.734,1.301,1.066c0.068,0.056,0.15,0.117,0.222,0.174c0.533,0.375,1.097,0.728,1.667,1.036v0.001
				c2.168,1.158,4.655,1.819,7.279,1.819c2.625,0,5.09-0.658,7.262-1.812v-0.009c4.273-2.277,7.328-6.494,8.037-11.471h0.016
				c0.102-0.719,0.18-1.448,0.18-2.196c0-0.813-0.088-1.604-0.199-2.383h-0.049C143.245,88.915,140.229,84.769,136.017,82.522z
				 M128.721,108.056c-6.543,0.001-11.843-5.302-11.843-11.836c0-6.543,5.3-11.842,11.843-11.842
				c6.543,0,11.838,5.302,11.838,11.842C140.56,102.754,135.265,108.056,128.721,108.056z"/>
			<path fill="#FFFFFF" d="M146.122,93.809h-0.875c0.121,0.78,0.189,1.572,0.189,2.383c0,0.746-0.068,1.475-0.166,2.196h0.855
				c0.316,0,0.564-0.259,0.564-0.575v-0.006v-3.422v-0.001C146.702,94.066,146.442,93.809,146.122,93.809z"/>
			<path fill="#FFFFFF" d="M128.754,112.873c-2.623,0-5.077-0.619-7.279-1.691v8.838c0,0.647,0.523,1.171,1.169,1.171h12.203
				c0.646,0,1.17-0.523,1.17-1.171v-8.829C133.819,112.256,131.358,112.873,128.754,112.873z"/>
			<path fill="#FFFFFF" d="M128.754,79.508c2.604,0,5.065,0.617,7.262,1.683v-8.829c0-0.647-0.523-1.171-1.17-1.171h-12.203
				c-0.646,0-1.169,0.523-1.169,1.171c0,0,0,5.264,0,8.838C123.677,80.127,126.131,79.508,128.754,79.508z"/>
		</g>
	</g>
</g>
</svg>
